<svg width="200" height="200" viewBox="0 0 200 200" fill="none" xmlns="http://www.w3.org/2000/svg">
    <rect width="200" height="200" rx="20" fill="#030336"/>
    <path fill-rule="evenodd" clip-rule="evenodd" d="M162.783 129.541L114.143 45.2925L114.112 45.2399C107.355 33.5353 92.3882 29.525 80.6836 36.2827C68.9792 43.0402 64.9688 58.0064 71.7259 69.7109L71.7259 69.7109L71.7263 69.7115L99.8235 118.377C100.223 119.552 100.439 120.807 100.439 122.111C100.439 128.673 94.9713 133.993 88.2269 133.993C84.5657 133.993 81.2809 132.425 79.0426 129.942C74.9148 122.26 66.8032 117.037 57.4716 117.037C55.7025 117.037 53.9773 117.225 52.3147 117.582H51.8723V117.681C41.0554 120.213 33 129.92 33 141.509C33 155.024 43.9563 165.981 57.4716 165.981C66.9524 165.981 75.174 160.589 79.2376 152.705C83.8812 146.547 91.2054 142.575 99.4455 142.575C107.659 142.575 114.962 146.521 119.608 152.645L120.235 153.731C120.395 154.037 120.562 154.342 120.737 154.644C127.495 166.349 142.461 170.359 154.166 163.602C165.871 156.844 169.881 141.877 163.123 130.173C163.003 129.965 162.881 129.76 162.756 129.557L162.783 129.541Z" fill="#6036D8"/>
</svg>
